<svg width="217" height="62" viewBox="0 0 217 62" fill="none" xmlns="http://www.w3.org/2000/svg">
<path d="M36.63 1.7L35.76 3.95C48.6 3.23 56.94 2.87 62.55 2.87C66.99 2.87 69.72 3.11 71.67 3.59C73.68 4.13 74.85 4.97 74.85 6.23C74.85 6.41 74.85 6.59 74.79 6.8V6.83C74.79 7.13 74.58 7.25 74.31 7.25C73.92 7.25 73.44 7.04 73.2 6.68C73.23 6.59 73.23 6.53 73.23 6.44C73.23 5.72 72.54 4.82 71.13 4.43C69.66 4.04 67.74 3.89 64.95 3.89C59.46 3.89 50.67 4.52 35.43 5.36L22.44 37.64C20.64 49.79 13.17 59 13.14 59.03C12.99 59.24 12.69 59.36 12.42 59.36C12.15 59.36 11.91 59.24 11.91 58.94C11.91 58.82 11.97 58.67 12.09 58.46L20.67 37.16C20.97 35 21.15 32.81 21.15 30.65C21.15 21.74 18.33 13.13 10.65 7.58C9.20995 7.67 7.85995 7.73 6.62995 7.73C3.11995 7.73 0.719951 7.37 0.23995 6.8C0.059951 6.62 -4.91142e-05 6.44 -4.91142e-05 6.23C-4.91142e-05 5.99 0.149951 5.72 0.44995 5.45C1.22995 4.79 2.12995 4.31 3.11995 4.07C3.68995 3.95 4.25995 3.86 4.85995 3.86C6.02995 3.86 7.25995 4.13 8.54995 4.67C9.29995 4.97 10.05 5.39 10.8 5.9C18.54 5.33 26.25 4.58 33.99 4.07L35.04 1.4C35.16 0.95 35.49 0.739997 35.82 0.739997C36.24 0.739997 36.63 1.07 36.63 1.58V1.7ZM16.56 50.6C17.28 49.04 18 47.27 18.66 45.38L16.56 50.6ZM27.33 22.19L33.3 5.66C26.34 6.17 19.44 6.95 12.42 7.46C19.71 13.7 22.23 22.31 22.23 31.4C22.23 32.03 22.23 32.66 22.2 33.29L27.33 22.19ZM8.69995 6.05C8.48995 5.96 8.27995 5.87 8.09995 5.78C6.95995 5.3 5.84995 5.06 4.82995 5.06C4.34995 5.06 3.83995 5.12 3.38995 5.24C2.69995 5.42 2.03995 5.72 1.49995 6.17C1.85995 6.26 2.45995 6.29 3.29995 6.29C4.61995 6.29 6.44995 6.2 8.69995 6.05ZM42.2411 27.08L40.7711 30.71C41.9411 28.22 43.6511 26.63 45.0911 26.63C45.7211 26.63 46.2911 26.93 46.7711 27.56C47.8811 30.02 52.3211 30.47 55.6511 30.47C57.1211 30.47 58.3811 30.38 59.0111 30.35C59.3711 30.32 59.6411 30.05 59.7011 30.05C59.8211 30.02 59.9411 29.99 60.0011 29.99C60.1811 29.99 60.2411 30.08 60.2411 30.17C60.2411 30.38 60.0311 30.68 59.7911 30.74C59.6411 30.89 57.3611 31.25 54.6911 31.25C51.4211 31.25 47.5511 30.71 46.0511 28.61C45.8711 28.37 45.6611 28.25 45.4511 28.25C43.3211 28.25 39.3911 37.64 39.3611 37.67V37.73C39.3611 38.09 38.9411 38.24 38.4911 38.24C37.9511 38.24 37.3511 38.03 37.3511 37.73C37.3511 37.67 37.3811 37.64 37.3811 37.61L39.9311 26.93C40.1411 26.36 40.6211 26.15 41.1011 26.15C41.6711 26.15 42.2411 26.48 42.2411 27.02V27.08ZM66.9553 30.56C66.5353 30.98 66.3553 31.13 65.8453 31.61C63.4753 33.86 60.7753 36.38 59.4853 36.38C59.4553 36.38 59.3953 36.35 59.3353 36.35C59.0053 36.29 58.7653 36.11 58.5553 35.87C58.3153 35.57 58.2253 35.21 58.2253 34.79C58.2253 34.64 58.2253 34.49 58.2553 34.34C58.3153 33.86 58.4953 33.26 58.7953 32.66C59.6653 30.74 61.5253 28.49 63.8353 27.8C64.4353 27.62 64.9753 27.56 65.4553 27.56C66.3853 27.56 67.0753 27.86 67.5253 28.31C68.4253 27.56 69.4753 26.81 70.0453 26.81C70.1353 26.81 70.2253 26.84 70.2853 26.87C70.6753 26.93 70.8853 27.32 70.8853 27.98C70.8853 28.7 70.6453 29.72 70.1353 31.01C69.8053 31.91 69.6553 32.66 69.6553 33.26C69.6553 34.82 70.6453 35.39 72.1153 35.39C75.9253 35.39 83.0053 31.37 84.0553 30.05C84.2353 29.69 84.4453 29.57 84.6253 29.57C84.8953 29.57 85.0753 29.81 85.0753 30.14C85.0753 30.32 85.0153 30.5 84.8653 30.68C84.5053 31.19 76.4653 35.9 71.7853 35.9C69.8653 35.9 68.5153 35.09 68.5153 32.84C68.5153 32.24 68.6053 31.55 68.8153 30.71C68.9953 29.57 69.3853 28.52 69.3853 28.28V28.25C69.3853 28.25 68.9353 28.67 68.2453 29.33C68.3653 29.69 68.3653 30.05 68.3653 30.23V30.35C68.0953 30.74 67.7353 30.92 67.4053 30.92C67.2853 30.92 67.1653 30.89 67.0453 30.83L66.9553 30.56ZM65.8153 29.78C65.6653 29.66 65.5153 29.63 65.3353 29.63C63.8953 29.63 61.3753 32.9 61.3753 33.59C61.3753 33.68 61.4353 33.74 61.5553 33.74C62.1253 33.74 63.9253 32.3 65.8153 29.78ZM89.2835 26.75C89.2835 26.78 86.6735 35.54 86.6735 36.92C86.6735 37.04 86.7035 37.1 86.7335 37.1C86.7635 37.1 86.7935 37.07 86.8235 37.04C87.5735 36.47 93.4535 25.16 94.0235 24.02C94.0535 23.99 94.3535 23.21 94.3535 23.21C94.4735 23.12 94.7135 23.09 94.9835 23.09C95.5835 23.09 96.3635 23.3 96.3635 23.75V23.81L95.9135 24.68C95.7635 25.1 95.1935 26.24 95.1935 27.38C95.1935 28.79 96.0635 30.2 99.6035 30.2C100.113 30.2 100.653 30.17 101.253 30.11C101.673 30.23 101.853 30.5 101.853 30.74C101.853 31.01 101.643 31.28 101.253 31.31C95.9735 31.31 94.3535 29.36 94.0835 27.38C91.5035 32.09 87.0635 39.77 85.3835 39.77C85.2935 39.77 85.2035 39.74 85.1435 39.71C84.5135 39.59 84.3035 38.63 84.3035 37.25C84.3035 34.1 85.5635 28.7 86.4035 26.21C86.6135 25.64 87.0035 25.43 87.4535 25.43C88.1735 25.43 88.9835 26.06 89.2835 26.75ZM102.688 31.25C104.608 29.6 105.328 28.61 105.328 28.34C105.328 28.28 105.298 28.25 105.238 28.25C104.638 28.34 104.068 29.45 102.688 31.25ZM107.128 28.01C107.128 28.13 107.158 28.22 107.158 28.34C107.158 30.86 103.108 32.48 102.268 32.81C102.268 32.99 102.238 33.2 102.238 33.41C102.238 34.13 102.358 34.97 102.718 35.51C103.108 36.11 103.768 36.38 104.608 36.38C108.748 36.38 117.028 30.14 117.058 30.11C117.178 30.02 117.298 29.99 117.418 29.99C117.808 29.99 118.138 30.35 118.138 30.71C118.138 30.86 118.048 31.01 117.898 31.13C117.838 31.16 109.768 36.98 104.848 36.98C103.558 36.98 102.478 36.59 101.818 35.57C101.248 34.73 101.038 33.83 101.038 32.96C101.038 31.28 101.878 29.69 102.868 28.52C103.408 27.89 104.008 27.41 104.548 27.11C104.968 26.87 105.358 26.75 105.748 26.75C105.958 26.75 106.168 26.78 106.348 26.87C106.768 27.05 107.068 27.44 107.128 28.01ZM120.213 27.98C122.073 26.27 130.323 12.95 130.323 9.77C130.323 9.62 130.293 9.5 130.263 9.41C130.173 9.23 130.113 9.14 130.053 9.14H130.023C129.723 9.14 129.183 9.62 128.493 10.4C127.713 11.3 126.813 12.62 125.883 14.21C124.023 17.39 121.623 24.02 120.213 27.98ZM119.283 30.68C117.063 37.79 115.953 42.98 115.953 45.89C115.953 46.82 116.073 47.54 116.283 47.99C116.583 48.62 117.033 48.92 117.573 48.92C121.983 48.92 133.293 30.77 133.323 30.71C133.623 30.26 133.953 30.08 134.223 30.08C134.553 30.08 134.793 30.32 134.793 30.74V30.77C134.763 30.83 122.913 49.34 117.483 49.34C116.673 49.34 116.013 48.92 115.533 47.96C115.233 47.33 115.113 46.34 115.113 45.14C115.113 37.28 120.933 19.16 124.923 13.67C125.883 12.02 126.843 10.64 127.653 9.68C128.583 8.63 129.423 8.03 130.113 8.03H130.143C130.653 8.06 131.043 8.39 131.283 9.02C131.403 9.35 131.463 9.74 131.463 10.19C131.463 15.59 122.913 28.25 119.283 30.68ZM137.263 27.71C137.233 27.68 137.203 27.62 137.203 27.59C137.143 27.44 137.143 27.32 137.143 27.2C137.143 26.96 137.233 26.78 137.413 26.63C137.563 26.51 137.713 26.45 137.893 26.45C137.983 26.45 138.073 26.48 138.193 26.51C138.703 26.72 139.063 27.2 139.273 28.01C139.963 28.76 140.953 29.39 142.963 29.54C144.013 29.63 144.973 29.66 145.813 29.66C148.963 29.66 150.613 29.18 150.613 29.15H150.763C151.093 29.15 151.273 29.42 151.273 29.72C151.273 30.02 151.123 30.32 150.853 30.41C150.853 30.41 149.653 30.65 147.193 30.65C146.113 30.65 144.793 30.59 143.233 30.47C141.583 30.32 140.533 30.05 139.603 29.63C139.573 32.21 138.613 36.26 136.363 37.85C135.943 38.12 135.433 38.3 134.953 38.3C134.713 38.3 134.473 38.27 134.293 38.18C133.423 37.82 133.123 36.95 133.123 35.93C133.123 34.55 133.663 32.93 134.023 32.12C134.503 31.04 136.123 28.43 137.263 27.71ZM137.893 28.55C136.783 29.42 135.613 31.49 135.073 32.75C134.893 33.17 134.353 34.82 134.353 35.96C134.353 36.47 134.443 36.86 134.773 36.98C134.833 37.01 134.893 37.01 134.953 37.01C136.363 37.01 138.103 30.56 138.103 28.91V28.73C138.013 28.67 137.953 28.61 137.893 28.55ZM153.67 25.58L150.04 38.39C151.03 36.2 154.78 25.91 159.67 25.91C160.12 25.91 160.6 26 161.08 26.18C162.22 26.99 162.67 28.67 162.67 30.14C162.67 30.56 162.61 31.01 162.55 31.37C165.1 30.56 167.59 29.93 170.08 29.93C170.41 29.93 170.74 29.93 171.1 29.96C171.37 29.99 171.46 30.2 171.46 30.44C171.46 30.83 171.16 31.31 170.8 31.31H170.74C169.93 31.22 169.15 31.16 168.37 31.16C166.45 31.16 164.59 31.49 162.49 32.24C161.47 35.18 158.74 38.81 155.32 39.17C155.11 39.2 154.93 39.2 154.78 39.2C153.94 39.2 153.49 38.96 153.16 38.69C152.86 38.48 152.74 38.21 152.74 37.94C152.74 35.87 160.21 32.39 161.11 31.88C161.14 31.82 161.17 31.73 161.2 31.67C161.23 31.46 161.26 31.19 161.26 30.89C161.26 29.72 160.93 28.01 160.24 27.53C159.76 27.14 159.25 26.96 158.77 26.96C153.4 26.96 147.67 48.65 146.14 54.92C146.11 55.01 146.11 55.13 146.11 55.25C146.11 55.52 146.14 55.88 146.14 56.12V56.3C146.11 56.42 145.81 56.51 145.51 56.51C145.12 56.51 144.64 56.36 144.64 55.91C144.64 55.85 144.64 55.79 144.67 55.73C146.71 45.62 148.78 38 151.54 27.77L151.45 25.82C151.54 25.1 152.14 24.8 152.68 24.8C153.19 24.8 153.67 25.07 153.67 25.46V25.58ZM154.81 38.33C157.39 38.09 159.73 35.18 160.75 32.9C158.14 33.83 153.52 36.83 153.52 37.82C153.52 37.91 153.58 37.97 153.64 38.03C153.79 38.15 153.88 38.36 154.45 38.36C154.57 38.36 154.66 38.33 154.81 38.33ZM174.95 28.64C174.95 28.64 173.03 32.12 173.03 34.22C173.03 34.85 173.21 35.36 173.63 35.63C173.78 35.75 174.02 35.78 174.32 35.78C177.83 35.78 191.12 30.05 191.12 30.05C191.36 29.87 191.57 29.81 191.78 29.81C192.32 29.81 192.71 30.23 192.71 30.53C192.71 30.59 192.71 30.65 192.65 30.71C192.62 30.71 178.79 36.74 173.78 36.74C173.03 36.74 172.46 36.62 172.19 36.29C171.35 35.75 171.05 34.73 171.05 33.59C171.05 31.49 172.07 28.94 172.61 28.01C172.85 27.5 173.27 27.29 173.72 27.29C174.35 27.29 174.98 27.74 174.98 28.37C174.98 28.46 174.98 28.55 174.95 28.64ZM176.03 21.62C176.42 21.77 176.66 22.19 176.66 22.7C176.66 22.91 176.63 23.12 176.54 23.33C176.33 23.96 175.82 24.38 175.34 24.38C175.25 24.38 175.16 24.38 175.07 24.35C174.68 24.2 174.44 23.78 174.44 23.27C174.44 23.06 174.47 22.85 174.56 22.64C174.8 22.01 175.31 21.59 175.79 21.59C175.88 21.59 175.94 21.59 176.03 21.62ZM198.666 30.56C198.246 30.98 198.066 31.13 197.556 31.61C195.186 33.86 192.486 36.38 191.196 36.38C191.166 36.38 191.106 36.35 191.046 36.35C190.716 36.29 190.476 36.11 190.266 35.87C190.026 35.57 189.936 35.21 189.936 34.79C189.936 34.64 189.936 34.49 189.966 34.34C190.026 33.86 190.206 33.26 190.506 32.66C191.376 30.74 193.236 28.49 195.546 27.8C196.146 27.62 196.686 27.56 197.166 27.56C198.096 27.56 198.786 27.86 199.236 28.31C200.136 27.56 201.186 26.81 201.756 26.81C201.846 26.81 201.936 26.84 201.996 26.87C202.386 26.93 202.596 27.32 202.596 27.98C202.596 28.7 202.356 29.72 201.846 31.01C201.516 31.91 201.366 32.66 201.366 33.26C201.366 34.82 202.356 35.39 203.826 35.39C207.636 35.39 214.716 31.37 215.766 30.05C215.946 29.69 216.156 29.57 216.336 29.57C216.606 29.57 216.786 29.81 216.786 30.14C216.786 30.32 216.726 30.5 216.576 30.68C216.216 31.19 208.176 35.9 203.496 35.9C201.576 35.9 200.226 35.09 200.226 32.84C200.226 32.24 200.316 31.55 200.526 30.71C200.706 29.57 201.096 28.52 201.096 28.28V28.25C201.096 28.25 200.646 28.67 199.956 29.33C200.076 29.69 200.076 30.05 200.076 30.23V30.35C199.806 30.74 199.446 30.92 199.116 30.92C198.996 30.92 198.876 30.89 198.756 30.83L198.666 30.56ZM197.526 29.78C197.376 29.66 197.226 29.63 197.046 29.63C195.606 29.63 193.086 32.9 193.086 33.59C193.086 33.68 193.146 33.74 193.266 33.74C193.836 33.74 195.636 32.3 197.526 29.78Z" fill="#0F3C4D"/>
</svg>
